<svg width="533" height="78" viewBox="0 0 533 78" fill="none" xmlns="http://www.w3.org/2000/svg">
<path d="M12.1719 40.0254V38.9987L16.7122 38.2686V23.431L4.85579 2.73749L1 2.05304V0.980713H15.6931V2.05304L11.1528 2.73749L21.3969 20.4498L30.8197 4.3954L24.9637 2.05304V0.980713H35.8999V2.05304L32.1429 4.44103L21.9901 21.8187V38.2686L26.5304 38.9987V40.0254H12.1719Z" fill="url(#paint0_linear_0_669)"/>
<path d="M43.8019 37.8049C41.5888 35.6754 40.486 32.8539 40.486 29.3404V2.74533L35.999 2.06085V0.988525H50.3499V2.06085L45.8629 2.74533V29.3404C45.8629 32.5269 46.7603 34.9758 48.5475 36.6869C50.3347 38.3981 53.0573 39.2499 56.7001 39.2499C63.598 39.2499 67.0507 35.9492 67.0507 29.3404V3.96213L62.5104 2.06085V0.988525H72.9066V2.06085L68.2219 3.96213V29.3404C68.2219 33.2418 67.1344 36.1622 64.9517 38.1015C62.769 40.0332 59.225 41.0066 54.3121 41.0066C49.5133 40.999 46.015 39.9343 43.8019 37.8049Z" fill="url(#paint1_linear_0_669)"/>
<path d="M76.1084 40.0254V38.9987L80.5954 38.2686V2.73749L76.1084 2.05304V0.980713H90.4592V2.05304L85.9722 2.73749V38.8542H100.566L104.567 28.1157H105.882V40.0254H76.1084Z" fill="url(#paint2_linear_0_669)"/>
<path d="M109.046 40.0254V38.9987L113.533 38.2686V2.73749L109.046 2.05304V0.980713H123.396V2.05304L118.909 2.73749V38.2686L123.396 38.9987V40.0254H109.046Z" fill="url(#paint3_linear_0_669)"/>
<path d="M123.983 40.0257V38.999L128.766 37.0445L142.874 0H143.657L156.981 38.2613L161.468 38.9914V40.0181H147.117V38.9914L151.118 38.3602L146.973 26.7928H133.991L130.036 37.0445L134.432 38.999V40.0257H123.983ZM134.379 25.7737H146.631L140.775 8.59377L134.379 25.7737Z" fill="url(#paint4_linear_0_669)"/>
<path d="M174.199 40.0258V38.9991L178.739 37.0446V3.9548L174.199 2.05352V0.981201H183.28L204.315 30.4586V3.9548L199.775 2.05352V0.981201H210.171V2.05352L205.532 3.9548V40.0182H204.308L179.956 5.81045V37.0446L184.641 38.9991V40.0258H174.199Z" fill="url(#paint5_linear_0_669)"/>
<path d="M213.783 40.0258V38.9991L218.27 38.2691V2.73798L213.783 2.05352V0.981201H243.161V12.1607H241.846L238.089 2.20561H223.647V19.7734H229.989L232.872 12.6931H234.142V28.1162H232.872L229.944 20.9446H223.647V38.8547H238.971L242.971 28.1162H244.241V40.0258H213.783Z" fill="url(#paint6_linear_0_669)"/>
<path d="M255.505 38.4134L251.353 40.5124H250.281V27.9639H251.353L255.551 37.0445C258.251 38.9609 261.339 39.9268 264.822 39.9268C267.681 39.9268 270.054 39.1739 271.925 37.6605C273.796 36.147 274.731 34.0252 274.731 31.295C274.731 29.3101 274.13 27.7434 272.921 26.5874C271.72 25.4314 269.765 24.5112 267.065 23.8268L258.966 21.7278C256.137 20.9825 254 19.7048 252.57 17.8948C251.14 16.0848 250.425 13.9477 250.425 11.4761C250.425 9.23256 250.874 7.24003 251.764 5.49846C252.661 3.75689 253.969 2.41077 255.696 1.44492C257.422 0.486678 259.468 0.00756836 261.848 0.00756836C264.806 0.00756836 267.461 0.509498 269.803 1.52098L273.362 0.00756836H274.435V9.96266H273.37L269.856 2.83667C267.415 1.66548 264.761 1.07989 261.901 1.07989C259.072 1.07989 256.844 1.80237 255.216 3.25494C253.589 4.69991 252.775 6.61641 252.775 8.9892C252.775 10.746 253.353 12.1301 254.509 13.134C255.665 14.1455 257.361 14.9364 259.612 15.522L268.351 17.8187C271.18 18.5336 273.286 19.7656 274.67 21.4996C276.054 23.2412 276.747 25.8878 276.747 29.4318C276.747 33.0442 275.636 35.8733 273.408 37.9267C271.18 39.98 268.191 40.9991 264.449 40.9991C261.415 40.9991 258.433 40.1321 255.505 38.4134Z" fill="url(#paint7_linear_0_669)"/>
<path d="M289.424 40.0256V38.9989L293.911 38.2688V2.20535H285.857L282.146 11.8715H280.731V0.988525H312.506V11.8715H311.038L307.38 2.20535H299.28V38.2688L303.767 38.9989V40.0256H289.424Z" fill="url(#paint8_linear_0_669)"/>
<path d="M315.631 40.0254V38.9987L320.118 38.2686V2.73749L315.631 2.05304V0.980713H345.01V12.1602H343.694L339.937 2.20512H325.495V19.7729H331.838L334.72 12.6926H335.99V28.1157H334.72L331.792 20.9441H325.495V38.8542H340.819L344.82 28.1157H346.09V40.0254H315.631Z" fill="url(#paint9_linear_0_669)"/>
<path d="M375.073 39.1893C374.161 38.3071 373.545 36.8165 373.218 34.7023L372.29 28.1619C371.963 25.9488 371.21 24.2148 370.024 22.9676C368.837 21.7127 366.989 21.0891 364.487 21.0891H360.677V38.2691L365.164 38.9991V40.0258H350.813V38.9991L355.3 38.2691V2.73798L350.813 2.05352V0.981201H364.479C369.78 0.981201 373.621 1.81015 375.994 3.46806C378.366 5.12598 379.56 7.65089 379.56 11.0352C379.56 16.6325 376.176 19.8723 369.407 20.7469V21.0435C371.91 21.4009 373.925 22.2983 375.431 23.7281C376.944 25.1579 377.895 27.0667 378.29 29.4395L378.921 33.6376C379.18 35.4628 379.484 36.6948 379.826 37.3489C380.169 38.0029 380.693 38.3223 381.408 38.3223C381.895 38.3223 382.42 38.1702 382.967 37.8584C383.523 37.5466 384.04 37.1511 384.526 36.6644L385.355 37.539C384.412 38.6113 383.431 39.3794 382.427 39.8357C381.424 40.292 380.328 40.5202 379.157 40.5202C377.355 40.5126 375.986 40.0715 375.073 39.1893ZM366.145 19.9179C368.518 19.9179 370.366 19.1954 371.689 17.7429C373.005 16.2979 373.666 14.1533 373.666 11.3242V10.2975C373.666 4.89783 370.609 2.19802 364.495 2.19802H360.684V19.9103H366.145V19.9179Z" fill="url(#paint10_linear_0_669)"/>
<path d="M386.297 40.0258V38.9991L390.784 38.2691V2.73798L386.297 2.05352V0.981201H415.675V12.1607H414.36L410.603 2.20561H396.153V19.7734H402.496L405.378 12.6931H406.648V28.1162H405.378L402.45 20.9446H396.153V38.8547H411.477L415.477 28.1162H416.748V40.0258H386.297Z" fill="url(#paint11_linear_0_669)"/>
<path d="M421.631 40.0254V38.9987L426.171 37.0441V3.95431L421.631 2.05304V0.980713H430.711L451.747 30.4581V3.95431L447.207 2.05304V0.980713H457.603V2.05304L452.964 3.95431V40.0177H451.739L427.388 5.80996V37.0441L432.072 38.9987V40.0254H421.631Z" fill="url(#paint12_linear_0_669)"/>
<path d="M461.216 40.0256V38.999L465.703 38.2689V2.73778L461.216 2.05332V0.981001H475.567V2.05332L471.08 2.73778V20.3056L486.944 4.0991L481.621 2.04571V0.973389H492.891V2.04571L488.891 4.0991L477.81 15.2254L493.431 38.2613L496.747 38.9913V40.018H482.351V38.9913L486.792 38.3069L474.008 19.0279L471.08 22.0015V38.2536L475.567 38.9837V40.0104H461.216V40.0256Z" fill="url(#paint13_linear_0_669)"/>
<path d="M505.09 38.4134C502.291 36.687 500.116 34.2762 498.549 31.1657C496.99 28.0628 496.207 24.5036 496.207 20.5033C496.207 16.503 496.99 12.9439 498.549 9.84097C500.108 6.73809 502.291 4.31966 505.09 2.5933C507.888 0.866941 511.06 0.00756836 514.604 0.00756836C518.148 0.00756836 521.319 0.866941 524.118 2.5933C526.916 4.31966 529.099 6.73048 530.658 9.84097C532.217 12.9515 533 16.503 533 20.5033C533 24.5036 532.217 28.0628 530.658 31.1657C529.099 34.2762 526.916 36.687 524.118 38.4134C521.319 40.1397 518.148 40.9991 514.604 40.9991C511.06 40.9991 507.888 40.1321 505.09 38.4134ZM520.923 38.0179C522.794 36.7783 524.27 34.9835 525.342 32.6259C526.414 30.2683 526.954 27.4772 526.954 24.2527V16.7388C526.954 13.5142 526.414 10.7308 525.342 8.36558C524.27 6.008 522.794 4.21319 520.923 2.97356C519.053 1.73392 516.946 1.11791 514.604 1.11791C512.231 1.11791 510.117 1.73392 508.261 2.97356C506.405 4.21319 504.945 6.008 503.865 8.36558C502.793 10.7232 502.253 13.5142 502.253 16.7388V24.2527C502.253 27.4772 502.793 30.2607 503.865 32.6259C504.937 34.9835 506.405 36.7859 508.261 38.0179C510.117 39.2575 512.231 39.8736 514.604 39.8736C516.946 39.8736 519.053 39.2575 520.923 38.0179Z" fill="url(#paint14_linear_0_669)"/>
<path d="M3.28807 73.7826L3.2873 73.7835C2.891 74.2458 2.33078 74.4806 1.56789 74.473H1.56639H1H0.778973L0.85 74.6517V77.3752V77.5252H1H1.83762H1.98762V77.3752V75.5787H11.4041V77.3752V77.5252H11.5541H12.3918H12.5418V77.3752V74.631V74.481H12.3918H11.401V63.7019V63.5519H11.251H4.04738H3.89738V63.7019V71.9984C3.89738 72.7263 3.6913 73.3196 3.28807 73.7826ZM5.035 72.2298V64.6576H10.2634V74.481H4.09048C4.09843 74.4731 4.10636 74.4651 4.11426 74.4571L4.11497 74.4564C4.72357 73.8311 5.035 73.084 5.035 72.2298Z" fill="white" stroke="white" stroke-width="0.3"/>
<path d="M26.6315 75.5865H26.7815V75.4365V63.7097V63.5597H26.6315H25.5784H25.5012L25.4563 63.6226L18.2376 73.7472V63.7097V63.5597H18.0876H17.25H17.1V63.7097V75.4365V75.5865H17.25H18.303H18.381L18.4258 75.5227L25.6438 65.2376V75.4365V75.5865H25.7938H26.6315Z" fill="white" stroke="white" stroke-width="0.3"/>
<path d="M31.8385 65.8043L31.7806 65.9384L31.9132 65.9998L32.6711 66.3508L32.8143 66.4172L32.8733 66.2707C33.1112 65.6796 33.4615 65.2175 33.9298 64.8851C34.3988 64.5523 34.9189 64.3863 35.5023 64.3863C36.217 64.3863 36.8023 64.6131 37.2754 65.0487C37.7459 65.4818 37.9768 66.0236 37.9768 66.6774C37.9768 67.3018 37.7679 67.8129 37.3516 68.2217C36.934 68.6319 36.4218 68.8408 35.7974 68.8408H34.4413H34.2913V68.9908V69.7966V69.9466H34.4413H35.7974C36.5121 69.9466 37.1042 70.1733 37.5846 70.6311L37.5854 70.6319C38.0736 71.09 38.3119 71.6486 38.3119 72.3095C38.3119 72.9994 38.0518 73.5729 37.5253 74.0395C36.9973 74.4994 36.3396 74.7362 35.5342 74.7362C34.8599 74.7362 34.2592 74.5605 33.7271 74.2032C33.1949 73.8458 32.8061 73.3593 32.5453 72.738L32.4822 72.5877L32.3376 72.6631L31.6037 73.046L31.4799 73.1106L31.5355 73.2387C31.8897 74.0542 32.4268 74.6995 33.1378 75.1707C33.8501 75.6428 34.6531 75.8738 35.5422 75.8738C36.644 75.8738 37.5824 75.5356 38.3309 74.862C39.0803 74.1876 39.4575 73.3414 39.4575 72.3414C39.4575 71.683 39.2821 71.0737 38.9408 70.516L38.9403 70.5152C38.6436 70.0375 38.2463 69.654 37.7505 69.3706C38.1459 69.1013 38.4644 68.7529 38.7046 68.322L38.705 68.3212C38.9808 67.8198 39.1225 67.2603 39.1225 66.6694C39.1225 65.7038 38.7791 64.8905 38.0867 64.2314C37.3942 63.5722 36.5344 63.2487 35.5182 63.2487C34.7062 63.2487 33.9659 63.4812 33.3178 63.9382L33.3175 63.9384C32.6629 64.4024 32.1755 65.0234 31.8385 65.8043Z" fill="white" stroke="white" stroke-width="0.3"/>
<path d="M44.7873 75.5865H44.8849L44.9244 75.4973L46.4147 72.1323H52.7597L54.255 75.4975L54.2946 75.5865H54.3921H55.3334H55.5642L55.4705 75.3756L50.2613 63.6488L50.2217 63.5597H50.1242H49.0552H48.9577L48.9181 63.6488L43.7089 75.3756L43.6152 75.5865H43.8459H44.7873ZM49.5819 64.9811L52.2684 71.0266H46.9044L49.5819 64.9811Z" fill="white" stroke="white" stroke-width="0.3"/>
<path d="M69.6139 75.5866H69.7639V75.4366V63.7098V63.5598H69.6139H68.5609H68.4836L68.4387 63.6227L61.22 73.7473V63.7098V63.5598H61.07H60.2324H60.0824V63.7098V75.4366V75.5866H60.2324H61.2854H61.3634L61.4082 75.5228L68.6262 65.2377V75.4366V75.5866H68.7762H69.6139ZM62.4821 59.7067H62.3321V59.8567C62.3321 60.5604 62.5886 61.1584 63.1135 61.6495C63.6365 62.1387 64.2637 62.3839 64.9949 62.3839C65.742 62.3839 66.3998 62.1309 66.9536 61.6358L66.9536 61.6358L66.9546 61.635C67.5079 61.1319 67.7934 60.5428 67.7934 59.8567V59.7067H67.6434H66.8537H66.7037V59.8567C66.7037 60.258 66.5485 60.6009 66.2195 60.8933C65.8901 61.1862 65.4876 61.3341 65.0109 61.3341C64.5411 61.3341 64.1651 61.1936 63.8698 60.9127C63.5726 60.63 63.4218 60.2865 63.4218 59.8567V59.7067H63.2718H62.4821Z" fill="white" stroke="white" stroke-width="0.3"/>
<path d="M74.8249 75.4365V75.5865H74.9749H75.8125H75.9625V75.4365V70.1061H83.3687V75.4365V75.5865H83.5187H84.3563H84.5063V75.4365V63.7097V63.5597H84.3563H83.5187H83.3687V63.7097V69.0083H75.9625V63.7097V63.5597H75.8125H74.9749H74.8249V63.7097V75.4365Z" fill="white" stroke="white" stroke-width="0.3"/>
<path d="M97.0066 69.1503V69.0003H96.8566H90.7044V64.6654H97.2555H97.4055V64.5154V63.7097V63.5597H97.2555H89.7168H89.5668V63.7097V75.4365V75.5865H89.7168H97.2555H97.4055V75.4365V74.6308V74.4808H97.2555H90.7044V70.1061H96.8566H97.0066V69.9561V69.1503Z" fill="white" stroke="white" stroke-width="0.3"/>
<path d="M103.119 75.5787H103.269V75.4287V71.3587H106.956C108.156 71.3587 109.174 70.9794 110.017 70.2192L110.017 70.2187C110.853 69.4576 111.279 68.5245 111.279 67.4194C111.279 66.3175 110.879 65.3922 110.09 64.6534C109.301 63.9142 108.306 63.5519 107.124 63.5519H102.282H102.132V63.7019V75.4287V75.5787H102.282H103.119ZM103.269 70.253V64.6576H106.956C107.891 64.6576 108.644 64.9268 109.243 65.4503C109.841 65.9725 110.141 66.6255 110.141 67.4194C110.141 68.2301 109.84 68.8993 109.234 69.4372C108.626 69.9768 107.873 70.253 106.956 70.253H103.269Z" fill="white" stroke="white" stroke-width="0.3"/>
<path d="M133.242 75.5865H133.392V75.4365V63.7097V63.5597H133.242H132.189H132.112L132.067 63.6226L124.848 73.7472V63.7097V63.5597H124.698H123.861H123.711V63.7097V75.4365V75.5865H123.861H124.914H124.992L125.036 75.5227L132.254 65.2376V75.4365V75.5865H132.404H133.242Z" fill="white" stroke="white" stroke-width="0.3"/>
<path d="M138.453 75.4365V75.5865H138.603H139.44H139.59V75.4365V70.1061H146.996V75.4365V75.5865H147.146H147.984H148.134V75.4365V63.7097V63.5597H147.984H147.146H146.996V63.7097V69.0083H139.59V63.7097V63.5597H139.44H138.603H138.453V63.7097V75.4365Z" fill="white" stroke="white" stroke-width="0.3"/>
<path d="M161.871 63.7097V63.5597H161.721H152.842H152.692V63.7097V64.5154V64.6654H152.842H156.713V75.4365V75.5865H156.863H157.701H157.851V75.4365V64.6654H161.721H161.871V64.5154V63.7097Z" fill="white" stroke="white" stroke-width="0.3"/>
<path d="M173.87 69.1503V69.0003H173.72H167.567V64.6654H174.119H174.269V64.5154V63.7097V63.5597H174.119H166.58H166.43V63.7097V75.4365V75.5865H166.58H174.119H174.269V75.4365V74.6308V74.4808H174.119H167.567V70.1061H173.72H173.87V69.9561V69.1503Z" fill="white" stroke="white" stroke-width="0.3"/>
<path d="M179.983 75.5787H180.133V75.4287V71.3587H183.82C185.011 71.3587 186.037 70.9795 186.88 70.2192L186.881 70.2187C187.716 69.4576 188.142 68.5245 188.142 67.4194C188.142 66.3175 187.743 65.3922 186.954 64.6534C186.165 63.9142 185.169 63.5519 183.988 63.5519H179.145H178.995V63.7019V75.4287V75.5787H179.145H179.983ZM180.133 70.253V64.6576H183.82C184.746 64.6576 185.507 64.9269 186.107 65.4503C186.705 65.9725 187.005 66.6255 187.005 67.4194C187.005 68.2301 186.704 68.8993 186.098 69.4372C185.49 69.9768 184.736 70.253 183.82 70.253H180.133Z" fill="white" stroke="white" stroke-width="0.3"/>
<path d="M193.836 63.7097V63.5597H193.686H192.849H192.699V63.7097V75.4365V75.5865H192.849H198.361C199.353 75.5865 200.19 75.2711 200.851 74.6265C201.511 73.9831 201.846 73.1781 201.846 72.2216C201.846 71.2615 201.485 70.4486 200.778 69.783L200.777 69.7824C200.062 69.1175 199.204 68.7849 198.194 68.7849H193.836V63.7097ZM199.993 73.8327L199.992 73.8335C199.52 74.2604 198.919 74.4808 198.194 74.4808H193.836V69.8906H198.194C198.917 69.8906 199.51 70.1176 199.99 70.5605C200.47 71.0106 200.708 71.5611 200.708 72.2216C200.708 72.8736 200.471 73.407 199.993 73.8327Z" fill="white" stroke="white" stroke-width="0.3"/>
<path d="M214.011 69.1503V69.0003H213.861H207.709V64.6654H214.26H214.41V64.5154V63.7097V63.5597H214.26H206.722H206.572V63.7097V75.4365V75.5865H206.722H214.26H214.41V75.4365V74.6308V74.4808H214.26H207.709V70.1061H213.861H214.011V69.9561V69.1503Z" fill="white" stroke="white" stroke-width="0.3"/>
<path d="M220.116 75.5787H220.266V75.4287V71.3587H223.953C225.152 71.3587 226.179 70.9797 227.014 70.2187C227.849 69.4576 228.276 68.5245 228.276 67.4194C228.276 66.3175 227.876 65.3922 227.087 64.6534C226.298 63.9142 225.303 63.5519 224.121 63.5519H219.279H219.129V63.7019V75.4287V75.5787H219.279H220.116ZM220.266 70.253V64.6576H223.953C224.887 64.6576 225.641 64.9268 226.24 65.4503C226.838 65.9725 227.138 66.6255 227.138 67.4194C227.138 68.2301 226.837 68.8993 226.231 69.4372C225.623 69.9768 224.87 70.253 223.953 70.253H220.266Z" fill="white" stroke="white" stroke-width="0.3"/>
<path d="M233.454 75.5865H233.551L233.591 75.4973L235.081 72.1323H241.426L242.922 75.4975L242.961 75.5865H243.059H244H244.231L244.137 75.3756L238.928 63.6488L238.888 63.5597H238.791H237.722H237.624L237.585 63.6488L232.375 75.3756L232.282 75.5865H232.512H233.454ZM238.248 64.9811L240.935 71.0266H235.571L238.248 64.9811Z" fill="white" stroke="white" stroke-width="0.3"/>
<defs>
<linearGradient id="paint0_linear_0_669" x1="22.2793" y1="-36.058" x2="16.5754" y2="19.8396" gradientUnits="userSpaceOnUse">
<stop stop-color="white"/>
<stop offset="0.066" stop-color="#F6F0E4"/>
<stop offset="0.2868" stop-color="#DBC08D"/>
<stop offset="0.3872" stop-color="#D0AD6A"/>
<stop offset="0.4182" stop-color="#DABB7F"/>
<stop offset="0.474" stop-color="#E9D19F"/>
<stop offset="0.528" stop-color="#F4E0B6"/>
<stop offset="0.5786" stop-color="#FBEAC4"/>
<stop offset="0.6225" stop-color="#FDEDC9"/>
<stop offset="0.719" stop-color="#FCEBC6"/>
<stop offset="0.7925" stop-color="#F7E4BC"/>
<stop offset="0.8584" stop-color="#EFD9AC"/>
<stop offset="0.9198" stop-color="#E4CA95"/>
<stop offset="0.9776" stop-color="#D6B678"/>
<stop offset="1" stop-color="#D0AD6A"/>
</linearGradient>
<linearGradient id="paint1_linear_0_669" x1="57.9014" y1="-32.423" x2="52.1976" y2="23.4746" gradientUnits="userSpaceOnUse">
<stop stop-color="white"/>
<stop offset="0.066" stop-color="#F6F0E4"/>
<stop offset="0.2868" stop-color="#DBC08D"/>
<stop offset="0.3872" stop-color="#D0AD6A"/>
<stop offset="0.4182" stop-color="#DABB7F"/>
<stop offset="0.474" stop-color="#E9D19F"/>
<stop offset="0.528" stop-color="#F4E0B6"/>
<stop offset="0.5786" stop-color="#FBEAC4"/>
<stop offset="0.6225" stop-color="#FDEDC9"/>
<stop offset="0.719" stop-color="#FCEBC6"/>
<stop offset="0.7925" stop-color="#F7E4BC"/>
<stop offset="0.8584" stop-color="#EFD9AC"/>
<stop offset="0.9198" stop-color="#E4CA95"/>
<stop offset="0.9776" stop-color="#D6B678"/>
<stop offset="1" stop-color="#D0AD6A"/>
</linearGradient>
<linearGradient id="paint2_linear_0_669" x1="95.9956" y1="-28.536" x2="90.2918" y2="27.3616" gradientUnits="userSpaceOnUse">
<stop stop-color="white"/>
<stop offset="0.066" stop-color="#F6F0E4"/>
<stop offset="0.2868" stop-color="#DBC08D"/>
<stop offset="0.3872" stop-color="#D0AD6A"/>
<stop offset="0.4182" stop-color="#DABB7F"/>
<stop offset="0.474" stop-color="#E9D19F"/>
<stop offset="0.528" stop-color="#F4E0B6"/>
<stop offset="0.5786" stop-color="#FBEAC4"/>
<stop offset="0.6225" stop-color="#FDEDC9"/>
<stop offset="0.719" stop-color="#FCEBC6"/>
<stop offset="0.7925" stop-color="#F7E4BC"/>
<stop offset="0.8584" stop-color="#EFD9AC"/>
<stop offset="0.9198" stop-color="#E4CA95"/>
<stop offset="0.9776" stop-color="#D6B678"/>
<stop offset="1" stop-color="#D0AD6A"/>
</linearGradient>
<linearGradient id="paint3_linear_0_669" x1="120.966" y1="-25.988" x2="115.262" y2="29.9096" gradientUnits="userSpaceOnUse">
<stop stop-color="white"/>
<stop offset="0.066" stop-color="#F6F0E4"/>
<stop offset="0.2868" stop-color="#DBC08D"/>
<stop offset="0.3872" stop-color="#D0AD6A"/>
<stop offset="0.4182" stop-color="#DABB7F"/>
<stop offset="0.474" stop-color="#E9D19F"/>
<stop offset="0.528" stop-color="#F4E0B6"/>
<stop offset="0.5786" stop-color="#FBEAC4"/>
<stop offset="0.6225" stop-color="#FDEDC9"/>
<stop offset="0.719" stop-color="#FCEBC6"/>
<stop offset="0.7925" stop-color="#F7E4BC"/>
<stop offset="0.8584" stop-color="#EFD9AC"/>
<stop offset="0.9198" stop-color="#E4CA95"/>
<stop offset="0.9776" stop-color="#D6B678"/>
<stop offset="1" stop-color="#D0AD6A"/>
</linearGradient>
<linearGradient id="paint4_linear_0_669" x1="149.113" y1="-23.1155" x2="143.41" y2="32.7821" gradientUnits="userSpaceOnUse">
<stop stop-color="white"/>
<stop offset="0.066" stop-color="#F6F0E4"/>
<stop offset="0.2868" stop-color="#DBC08D"/>
<stop offset="0.3872" stop-color="#D0AD6A"/>
<stop offset="0.4182" stop-color="#DABB7F"/>
<stop offset="0.474" stop-color="#E9D19F"/>
<stop offset="0.528" stop-color="#F4E0B6"/>
<stop offset="0.5786" stop-color="#FBEAC4"/>
<stop offset="0.6225" stop-color="#FDEDC9"/>
<stop offset="0.719" stop-color="#FCEBC6"/>
<stop offset="0.7925" stop-color="#F7E4BC"/>
<stop offset="0.8584" stop-color="#EFD9AC"/>
<stop offset="0.9198" stop-color="#E4CA95"/>
<stop offset="0.9776" stop-color="#D6B678"/>
<stop offset="1" stop-color="#D0AD6A"/>
</linearGradient>
<linearGradient id="paint5_linear_0_669" x1="194.229" y1="-18.5117" x2="188.525" y2="37.3859" gradientUnits="userSpaceOnUse">
<stop stop-color="white"/>
<stop offset="0.066" stop-color="#F6F0E4"/>
<stop offset="0.2868" stop-color="#DBC08D"/>
<stop offset="0.3872" stop-color="#D0AD6A"/>
<stop offset="0.4182" stop-color="#DABB7F"/>
<stop offset="0.474" stop-color="#E9D19F"/>
<stop offset="0.528" stop-color="#F4E0B6"/>
<stop offset="0.5786" stop-color="#FBEAC4"/>
<stop offset="0.6225" stop-color="#FDEDC9"/>
<stop offset="0.719" stop-color="#FCEBC6"/>
<stop offset="0.7925" stop-color="#F7E4BC"/>
<stop offset="0.8584" stop-color="#EFD9AC"/>
<stop offset="0.9198" stop-color="#E4CA95"/>
<stop offset="0.9776" stop-color="#D6B678"/>
<stop offset="1" stop-color="#D0AD6A"/>
</linearGradient>
<linearGradient id="paint6_linear_0_669" x1="232.587" y1="-14.5975" x2="226.883" y2="41.3001" gradientUnits="userSpaceOnUse">
<stop stop-color="white"/>
<stop offset="0.066" stop-color="#F6F0E4"/>
<stop offset="0.2868" stop-color="#DBC08D"/>
<stop offset="0.3872" stop-color="#D0AD6A"/>
<stop offset="0.4182" stop-color="#DABB7F"/>
<stop offset="0.474" stop-color="#E9D19F"/>
<stop offset="0.528" stop-color="#F4E0B6"/>
<stop offset="0.5786" stop-color="#FBEAC4"/>
<stop offset="0.6225" stop-color="#FDEDC9"/>
<stop offset="0.719" stop-color="#FCEBC6"/>
<stop offset="0.7925" stop-color="#F7E4BC"/>
<stop offset="0.8584" stop-color="#EFD9AC"/>
<stop offset="0.9198" stop-color="#E4CA95"/>
<stop offset="0.9776" stop-color="#D6B678"/>
<stop offset="1" stop-color="#D0AD6A"/>
</linearGradient>
<linearGradient id="paint7_linear_0_669" x1="266.805" y1="-11.1062" x2="261.102" y2="44.7914" gradientUnits="userSpaceOnUse">
<stop stop-color="white"/>
<stop offset="0.066" stop-color="#F6F0E4"/>
<stop offset="0.2868" stop-color="#DBC08D"/>
<stop offset="0.3872" stop-color="#D0AD6A"/>
<stop offset="0.4182" stop-color="#DABB7F"/>
<stop offset="0.474" stop-color="#E9D19F"/>
<stop offset="0.528" stop-color="#F4E0B6"/>
<stop offset="0.5786" stop-color="#FBEAC4"/>
<stop offset="0.6225" stop-color="#FDEDC9"/>
<stop offset="0.719" stop-color="#FCEBC6"/>
<stop offset="0.7925" stop-color="#F7E4BC"/>
<stop offset="0.8584" stop-color="#EFD9AC"/>
<stop offset="0.9198" stop-color="#E4CA95"/>
<stop offset="0.9776" stop-color="#D6B678"/>
<stop offset="1" stop-color="#D0AD6A"/>
</linearGradient>
<linearGradient id="paint8_linear_0_669" x1="298.087" y1="-7.91425" x2="292.383" y2="47.9833" gradientUnits="userSpaceOnUse">
<stop stop-color="white"/>
<stop offset="0.066" stop-color="#F6F0E4"/>
<stop offset="0.2868" stop-color="#DBC08D"/>
<stop offset="0.3872" stop-color="#D0AD6A"/>
<stop offset="0.4182" stop-color="#DABB7F"/>
<stop offset="0.474" stop-color="#E9D19F"/>
<stop offset="0.528" stop-color="#F4E0B6"/>
<stop offset="0.5786" stop-color="#FBEAC4"/>
<stop offset="0.6225" stop-color="#FDEDC9"/>
<stop offset="0.719" stop-color="#FCEBC6"/>
<stop offset="0.7925" stop-color="#F7E4BC"/>
<stop offset="0.8584" stop-color="#EFD9AC"/>
<stop offset="0.9198" stop-color="#E4CA95"/>
<stop offset="0.9776" stop-color="#D6B678"/>
<stop offset="1" stop-color="#D0AD6A"/>
</linearGradient>
<linearGradient id="paint9_linear_0_669" x1="333.391" y1="-4.31199" x2="327.687" y2="51.5856" gradientUnits="userSpaceOnUse">
<stop stop-color="white"/>
<stop offset="0.066" stop-color="#F6F0E4"/>
<stop offset="0.2868" stop-color="#DBC08D"/>
<stop offset="0.3872" stop-color="#D0AD6A"/>
<stop offset="0.4182" stop-color="#DABB7F"/>
<stop offset="0.474" stop-color="#E9D19F"/>
<stop offset="0.528" stop-color="#F4E0B6"/>
<stop offset="0.5786" stop-color="#FBEAC4"/>
<stop offset="0.6225" stop-color="#FDEDC9"/>
<stop offset="0.719" stop-color="#FCEBC6"/>
<stop offset="0.7925" stop-color="#F7E4BC"/>
<stop offset="0.8584" stop-color="#EFD9AC"/>
<stop offset="0.9198" stop-color="#E4CA95"/>
<stop offset="0.9776" stop-color="#D6B678"/>
<stop offset="1" stop-color="#D0AD6A"/>
</linearGradient>
<linearGradient id="paint10_linear_0_669" x1="370.119" y1="-0.563777" x2="364.415" y2="55.3338" gradientUnits="userSpaceOnUse">
<stop stop-color="white"/>
<stop offset="0.066" stop-color="#F6F0E4"/>
<stop offset="0.2868" stop-color="#DBC08D"/>
<stop offset="0.3872" stop-color="#D0AD6A"/>
<stop offset="0.4182" stop-color="#DABB7F"/>
<stop offset="0.474" stop-color="#E9D19F"/>
<stop offset="0.528" stop-color="#F4E0B6"/>
<stop offset="0.5786" stop-color="#FBEAC4"/>
<stop offset="0.6225" stop-color="#FDEDC9"/>
<stop offset="0.719" stop-color="#FCEBC6"/>
<stop offset="0.7925" stop-color="#F7E4BC"/>
<stop offset="0.8584" stop-color="#EFD9AC"/>
<stop offset="0.9198" stop-color="#E4CA95"/>
<stop offset="0.9776" stop-color="#D6B678"/>
<stop offset="1" stop-color="#D0AD6A"/>
</linearGradient>
<linearGradient id="paint11_linear_0_669" x1="403.329" y1="2.82514" x2="397.625" y2="58.7227" gradientUnits="userSpaceOnUse">
<stop stop-color="white"/>
<stop offset="0.066" stop-color="#F6F0E4"/>
<stop offset="0.2868" stop-color="#DBC08D"/>
<stop offset="0.3872" stop-color="#D0AD6A"/>
<stop offset="0.4182" stop-color="#DABB7F"/>
<stop offset="0.474" stop-color="#E9D19F"/>
<stop offset="0.528" stop-color="#F4E0B6"/>
<stop offset="0.5786" stop-color="#FBEAC4"/>
<stop offset="0.6225" stop-color="#FDEDC9"/>
<stop offset="0.719" stop-color="#FCEBC6"/>
<stop offset="0.7925" stop-color="#F7E4BC"/>
<stop offset="0.8584" stop-color="#EFD9AC"/>
<stop offset="0.9198" stop-color="#E4CA95"/>
<stop offset="0.9776" stop-color="#D6B678"/>
<stop offset="1" stop-color="#D0AD6A"/>
</linearGradient>
<linearGradient id="paint12_linear_0_669" x1="439.11" y1="6.47579" x2="433.406" y2="62.3734" gradientUnits="userSpaceOnUse">
<stop stop-color="white"/>
<stop offset="0.066" stop-color="#F6F0E4"/>
<stop offset="0.2868" stop-color="#DBC08D"/>
<stop offset="0.3872" stop-color="#D0AD6A"/>
<stop offset="0.4182" stop-color="#DABB7F"/>
<stop offset="0.474" stop-color="#E9D19F"/>
<stop offset="0.528" stop-color="#F4E0B6"/>
<stop offset="0.5786" stop-color="#FBEAC4"/>
<stop offset="0.6225" stop-color="#FDEDC9"/>
<stop offset="0.719" stop-color="#FCEBC6"/>
<stop offset="0.7925" stop-color="#F7E4BC"/>
<stop offset="0.8584" stop-color="#EFD9AC"/>
<stop offset="0.9198" stop-color="#E4CA95"/>
<stop offset="0.9776" stop-color="#D6B678"/>
<stop offset="1" stop-color="#D0AD6A"/>
</linearGradient>
<linearGradient id="paint13_linear_0_669" x1="479.983" y1="10.6466" x2="474.279" y2="66.5442" gradientUnits="userSpaceOnUse">
<stop stop-color="white"/>
<stop offset="0.066" stop-color="#F6F0E4"/>
<stop offset="0.2868" stop-color="#DBC08D"/>
<stop offset="0.3872" stop-color="#D0AD6A"/>
<stop offset="0.4182" stop-color="#DABB7F"/>
<stop offset="0.474" stop-color="#E9D19F"/>
<stop offset="0.528" stop-color="#F4E0B6"/>
<stop offset="0.5786" stop-color="#FBEAC4"/>
<stop offset="0.6225" stop-color="#FDEDC9"/>
<stop offset="0.719" stop-color="#FCEBC6"/>
<stop offset="0.7925" stop-color="#F7E4BC"/>
<stop offset="0.8584" stop-color="#EFD9AC"/>
<stop offset="0.9198" stop-color="#E4CA95"/>
<stop offset="0.9776" stop-color="#D6B678"/>
<stop offset="1" stop-color="#D0AD6A"/>
</linearGradient>
<linearGradient id="paint14_linear_0_669" x1="515.242" y1="14.2446" x2="509.538" y2="70.1421" gradientUnits="userSpaceOnUse">
<stop stop-color="white"/>
<stop offset="0.066" stop-color="#F6F0E4"/>
<stop offset="0.2868" stop-color="#DBC08D"/>
<stop offset="0.3872" stop-color="#D0AD6A"/>
<stop offset="0.4182" stop-color="#DABB7F"/>
<stop offset="0.474" stop-color="#E9D19F"/>
<stop offset="0.528" stop-color="#F4E0B6"/>
<stop offset="0.5786" stop-color="#FBEAC4"/>
<stop offset="0.6225" stop-color="#FDEDC9"/>
<stop offset="0.719" stop-color="#FCEBC6"/>
<stop offset="0.7925" stop-color="#F7E4BC"/>
<stop offset="0.8584" stop-color="#EFD9AC"/>
<stop offset="0.9198" stop-color="#E4CA95"/>
<stop offset="0.9776" stop-color="#D6B678"/>
<stop offset="1" stop-color="#D0AD6A"/>
</linearGradient>
</defs>
</svg>
